<?xml version="1.0"?>
<svg xmlns="http://www.w3.org/2000/svg" version="1" viewBox="0 0 24 24" enable-background="new 0 0 24 24">
    <path d="M 12 2 C 9.7901961 2 8 3.7901961 8 6 L 8 7 L 6.59375 7 C 5.69375 7 4.89375 7.6 4.59375 8.5 L 2 19.5 C 1.8 20.8 2.7 22 4 22 L 20 22 C 21.3 22 22.2 20.8 22 19.5 L 19.40625 8.5 C 19.20625 7.6 18.40625 7 17.40625 7 L 16 7 L 16 6 C 16 3.7901961 14.209804 2 12 2 z M 12 4 C 13.190196 4 14 4.8098039 14 6 L 14 7 L 10 7 L 10 6 C 10 4.8098039 10.809804 4 12 4 z M 9 9 C 9.6 9 10 9.4 10 10 C 10 10.6 9.6 11 9 11 C 8.4 11 8 10.6 8 10 C 8 9.4 8.4 9 9 9 z M 15 9 C 15.6 9 16 9.4 16 10 C 16 10.6 15.6 11 15 11 C 14.4 11 14 10.6 14 10 C 14 9.4 14.4 9 15 9 z"/>
</svg>
